 http://i1339.photobucket.com/albums/o717/oneforyoutwoforme/ytf_zps90ba0c26.jpg

 
http://i.imgbox.com/achcZ2z5.png




[code]General
Complete name                            : Khuda Jaane - Bachna Ae Haseeno 1080p ESubs-ViVeKRaNa(PimpRG).mp4
Format                                   : MPEG-4
Format profile                           : Base Media / Version 2
Codec ID                                 : mp42
File size                                : 78.5 MiB
Duration                                 : 5mn 13s
Overall bit rate mode                    : Variable
Overall bit rate                         : 2 099 Kbps
Encoded date                             : UTC 2013-04-18 10:47:28
Tagged date                              : UTC 2013-04-18 10:55:32
Writing application                      : HandBrake 0.9.8 2012071700

Video
ID                                       : 1
Format                                   : AVC
Format/Info                              : Advanced Video Codec
Format profile                           : Main@L4.0
Format settings, CABAC                   : Yes
Format settings, ReFrames                : 4 frames
Codec ID                                 : avc1
Codec ID/Info                            : Advanced Video Coding
Duration                                 : 5mn 13s
Bit rate mode                            : Variable
Bit rate                                 : 2 000 Kbps
Width                                    : 1 920 pixels
Height                                   : 890 pixels
Display aspect ratio                     : 2.2:1
Frame rate mode                          : Variable
Frame rate                               : 25.000 fps
Minimum frame rate                       : 12.500 fps
Maximum frame rate                       : 25.000 fps
Color space                              : YUV
Chroma subsampling                       : 4:2:0
Bit depth                                : 8 bits
Scan type                                : Progressive
Bits/(Pixel*Frame)                       : 0.047
Stream size                              : 74.8 MiB (95%)
Writing library                          : x264 core 120
Encoded date                             : UTC 2013-04-18 10:47:28
Tagged date                              : UTC 2013-04-18 10:55:32
Color primaries                          : BT.709
Transfer characteristics                 : BT.709
Matrix coefficients                      : BT.709

Audio
ID                                       : 2
Format                                   : AAC
Format/Info                              : Advanced Audio Codec
Format profile                           : LC
Codec ID                                 : 40
Duration                                 : 5mn 13s
Bit rate mode                            : Variable
Bit rate                                 : 96.0 Kbps
Maximum bit rate                         : 173 Kbps
Channel(s)                               : 2 channels
Channel positions                        : Front: L R
Sampling rate                            : 44.1 KHz
Compression mode                         : Lossy
Delay relative to video                  : 80ms
Stream size                              : 3.59 MiB (5%)
Encoded date                             : UTC 2013-04-18 10:47:29
Tagged date                              : UTC 2013-04-18 10:55:31

[/code]

